<svg width="3086" height="3058" viewBox="0 0 3086 3058" fill="none" xmlns="http://www.w3.org/2000/svg">
<path d="M1773.04 281C1773.04 334.04 1730.04 377.037 1677 377.037C1623.96 377.037 1580.96 334.04 1580.96 281C1580.96 227.96 1623.96 184.963 1677 184.963C1730.04 184.963 1773.04 227.96 1773.04 281Z" fill="white"/>
<path d="M1670.76 406.809C1670.76 404.157 1672.91 402.007 1675.56 402.007H1678.44C1681.09 402.007 1683.24 404.157 1683.24 406.809V482.198C1683.24 484.85 1681.09 487 1678.44 487H1675.56C1672.91 487 1670.76 484.85 1670.76 482.198V406.809Z" fill="white"/>
<path d="M1670.76 79.8019C1670.76 77.1499 1672.91 75 1675.56 75H1678.44C1681.09 75 1683.24 77.1499 1683.24 79.8019V155.191C1683.24 157.843 1681.09 159.993 1678.44 159.993H1675.56C1672.91 159.993 1670.76 157.843 1670.76 155.191V79.8019Z" fill="white"/>
<path d="M1761.55 374.374C1759.67 372.499 1759.67 369.459 1761.55 367.584L1763.58 365.546C1765.46 363.671 1768.5 363.671 1770.37 365.546L1823.68 418.855C1825.56 420.73 1825.56 423.77 1823.68 425.645L1821.65 427.683C1819.77 429.558 1816.73 429.558 1814.85 427.683L1761.55 374.374Z" fill="white"/>
<path d="M1530.32 143.146C1528.44 141.27 1528.44 138.23 1530.32 136.355L1532.35 134.317C1534.23 132.442 1537.27 132.442 1539.15 134.317L1592.45 187.626C1594.33 189.501 1594.33 192.541 1592.45 194.417L1590.42 196.454C1588.54 198.329 1585.5 198.329 1583.63 196.454L1530.32 143.146Z" fill="white"/>
<path d="M1802.81 287.242C1800.16 287.242 1798.01 285.093 1798.01 282.441V279.559C1798.01 276.907 1800.16 274.758 1802.81 274.758H1878.2C1880.85 274.758 1883 276.907 1883 279.559V282.441C1883 285.093 1880.85 287.242 1878.2 287.242H1802.81Z" fill="white"/>
<path d="M1475.8 287.242C1473.15 287.242 1471 285.093 1471 282.441V279.559C1471 276.907 1473.15 274.758 1475.8 274.758H1551.19C1553.84 274.758 1555.99 276.907 1555.99 279.559V282.441C1555.99 285.093 1553.84 287.242 1551.19 287.242H1475.8Z" fill="white"/>
<path d="M1583.63 365.546C1585.5 363.671 1588.54 363.671 1590.42 365.546L1592.45 367.584C1594.33 369.459 1594.33 372.499 1592.45 374.374L1539.15 427.683C1537.27 429.558 1534.23 429.558 1532.35 427.683L1530.32 425.645C1528.44 423.77 1528.44 420.73 1530.32 418.855L1583.63 365.546Z" fill="white"/>
<path d="M1814.85 134.317C1816.73 132.442 1819.77 132.442 1821.65 134.317L1823.68 136.355C1825.56 138.23 1825.56 141.27 1823.68 143.146L1770.37 196.454C1768.5 198.329 1765.46 198.329 1763.58 196.454L1761.55 194.417C1759.67 192.541 1759.67 189.501 1761.55 187.626L1814.85 134.317Z" fill="white"/>
<path d="M100.974 2233.26C121.744 2287 168.696 2275.93 186.686 2270.15L176.821 2257.86C170.918 2249.73 167.324 2243.76 159.912 2228.36C143.417 2229.92 133.498 2228.26 113.567 2216.97C133.147 2223.83 144.087 2227.58 159.48 2224.48C154.125 2209.42 153.442 2200.53 154.988 2184.19C143.717 2187.44 137.023 2186.1 124.332 2177.34C138.181 2183.45 145.096 2185.3 152.507 2179.42L139.826 2155.06C126.696 2155.67 120.694 2152.83 109.745 2148.33C120.282 2151.78 126.032 2154.42 137.965 2151.48L123.423 2123.54C116 2123.44 112.621 2120.73 106.854 2116.11C106.696 2115.98 106.535 2115.85 106.373 2115.72L106.382 2115.73C113.289 2119.92 117.164 2122.27 122.958 2119.67C115.402 2092.65 115.13 2074.76 113.791 2043.44C112.303 2026.14 80.2034 2179.52 100.974 2233.26Z" fill="white"/>
<path d="M230.465 2274.84C255.441 2290.17 330.469 2318.71 372.464 2250.35C414.26 2182.32 405.036 1981.23 423.554 1960.38C390.998 1995.28 371.048 2014.68 348.915 2051.31C360.012 2056.63 367.934 2057.82 381.881 2059.92L382.231 2059.97C368.287 2061.12 360.35 2061.17 345.112 2055.94L326.006 2102.34C344.739 2110.39 354.367 2111.17 370.16 2106.67C357.361 2113.88 348.252 2115.25 324.157 2106.82L306.9 2148.73C328.829 2160.51 339.984 2161.42 358.901 2158.15C340.645 2163.78 330.118 2166.2 304.787 2153.86C286.566 2168.98 277.372 2179 263.251 2200.69C295.144 2217.15 312.973 2220.5 344.72 2219.62C312.35 2225.61 293.749 2223.73 259.252 2205.2C248.824 2223.84 244.584 2233.87 240.355 2250.92L230.465 2274.84Z" fill="white"/>
<path fill-rule="evenodd" clip-rule="evenodd" d="M190.376 2127.67C178.256 2114.48 165.282 2101.48 153.52 2089.7C153.519 2089.7 153.517 2089.7 153.516 2089.69C132.16 2068.3 114.803 2050.9 113.819 2043.69C114.237 2047.44 114.621 2051 114.989 2054.4C117.62 2078.78 119.412 2095.38 126.992 2118.37C134.255 2115.18 138.165 2111.8 145.048 2105.86L145.22 2105.72C139.926 2113.02 136.622 2116.92 127.662 2122.18L142.352 2151C154.16 2145.22 158.582 2140.84 163.01 2131.22C161.17 2140.51 158.014 2145.54 143.774 2153.79L157.042 2179.82C164.48 2176.95 169.488 2174.25 173.423 2170.96C175.893 2157.01 181.41 2142.45 190.376 2127.67Z" fill="white"/>
<path d="M164.678 2226.83C169.425 2239.76 172.558 2246.04 179.125 2255.27L186.686 2270.15C192.02 2268.44 199.77 2265.06 207.621 2259.87C194.217 2249.19 184.105 2235.93 178.12 2220.9C174.226 2222.91 169.803 2224.85 164.678 2226.83Z" fill="white"/>
<path d="M158.667 2183.01C158.416 2198.27 159.462 2206.97 164.15 2222.98C168.907 2221.06 173.057 2219.2 176.777 2217.3C172.225 2204.22 170.733 2189.88 172.819 2174.79C169.521 2177.61 165.091 2180.23 158.667 2183.01Z" fill="white"/>
<path d="M234.972 2250.83C238.588 2235.67 241.982 2225.41 252.635 2201.14C234.145 2183.3 226.073 2169.96 219.238 2135.11C230.94 2165.07 237.571 2181.73 256.768 2196.71C269.1 2175.19 278.873 2165.42 299.68 2150.73C284.464 2140.75 279.29 2131.52 276.778 2107.75C283.572 2130.21 288.381 2140.21 302.789 2142.99L318.677 2103.46C305.487 2089.48 302.32 2079.85 297.167 2064.19C296.856 2063.24 296.538 2062.27 296.21 2061.28C296.825 2062.77 297.406 2064.2 297.967 2065.57C303.407 2078.94 306.942 2087.63 321.008 2097.66L339.227 2052.33C331.838 2043.5 331.618 2036.79 331.242 2025.33L331.223 2024.76L331.21 2024.37L331.213 2024.39C333.254 2036.75 334.399 2043.68 343.314 2047.87C365.845 2014.17 385.431 1995.9 416.726 1966.72L416.739 1966.71C419.034 1964.57 421.392 1962.37 423.82 1960.1C442.1 1941.48 242.773 2050.82 191.808 2129.23C190.158 2131.77 188.664 2134.27 187.338 2136.74C181.01 2148.52 176.981 2159.52 174.789 2169.76C174.505 2171.09 174.251 2172.4 174.028 2173.7C171.226 2190.03 173.117 2204.38 177.716 2216.81C178.161 2218.02 178.631 2219.2 179.125 2220.37C186.025 2236.69 197.523 2249.55 208.707 2259.15C216.724 2266.03 224.579 2271.23 230.465 2274.84L234.972 2250.83Z" fill="white"/>
<path d="M234.972 2250.83L230.465 2274.84L240.355 2250.92L234.972 2250.83Z" fill="white"/>
<path d="M176.821 2257.86L186.686 2270.15L179.125 2255.27L176.821 2257.86Z" fill="white"/>
<path fill-rule="evenodd" clip-rule="evenodd" d="M456 975.977C456 1048.51 384.886 1062 358.461 1062C332.037 1062 264.794 1056.64 260.145 975.977C255.497 895.317 363.887 704.288 358.461 728.027C353.036 751.765 456 903.442 456 975.977ZM403.005 1039.73C445.559 1001.17 450.026 963.829 403.005 894.154C400.667 892.511 397.565 891.819 395.233 892.987C392.901 894.154 392.135 896.588 393.29 900.382C429.43 954.098 438.567 993.842 395.622 1030C394.055 1033.58 394.067 1037.01 395.622 1038.56C397.176 1040.12 399.734 1040.31 403.005 1039.73Z" fill="white"/>
<path fill-rule="evenodd" clip-rule="evenodd" d="M554 810.341C554 842.938 521.708 849 509.709 849C497.711 849 467.177 846.589 465.066 810.341C462.955 774.092 512.173 688.242 509.709 698.911C507.246 709.579 554 777.743 554 810.341ZM529.936 838.993C549.259 821.662 551.287 804.882 529.936 773.569C528.874 772.831 527.466 772.52 526.407 773.045C525.348 773.569 525 774.663 525.525 776.368C541.935 800.508 546.084 818.369 526.583 834.62C525.872 836.228 525.877 837.768 526.583 838.468C527.289 839.168 528.451 839.25 529.936 838.993Z" fill="white"/>
<path fill-rule="evenodd" clip-rule="evenodd" d="M554 1081.34C554 1113.94 522.071 1120 510.207 1120C498.343 1120 468.152 1117.59 466.065 1081.34C463.978 1045.09 512.643 959.242 510.207 969.911C507.771 980.579 554 1048.74 554 1081.34ZM530.206 1109.99C549.312 1092.66 551.318 1075.88 530.206 1044.57C529.156 1043.83 527.764 1043.52 526.717 1044.04C525.67 1044.57 525.326 1045.66 525.844 1047.37C542.071 1071.51 546.173 1089.37 526.891 1105.62C526.188 1107.23 526.193 1108.77 526.891 1109.47C527.589 1110.17 528.738 1110.25 530.206 1109.99Z" fill="white"/>
<path fill-rule="evenodd" clip-rule="evenodd" d="M2793.11 775.31C2802.69 786.727 2812.09 798.292 2821.32 810C2812.12 798.263 2802.72 786.698 2793.11 775.31Z" fill="white" fill-opacity="0.5"/>
<path fill-rule="evenodd" clip-rule="evenodd" d="M0 2136C0 2287.88 123.122 2411 275 2411C302.743 2411 329.527 2406.89 354.777 2399.25C504.177 2687.15 745.791 2919.51 1040.5 3057.21C750.968 2921.69 518.18 2683.27 375.75 2391.96C477.788 2351.76 550 2252.31 550 2136C550 1984.12 426.878 1861 275 1861C258.873 1861 243.07 1862.39 227.704 1865.05C223.266 1817.82 221 1770.09 221 1722C221 1547.67 251.915 1380.56 308.561 1225.85C315.192 1207.74 322.175 1189.8 329.503 1172.04C361.989 1185.54 397.624 1193 435 1193C586.878 1193 710 1069.88 710 918C710 840.181 677.677 769.911 625.724 719.885C830.859 507.394 1100.62 357.706 1403.36 302.479C1417.14 441.455 1534.4 550 1677 550C1818.96 550 1935.79 442.44 1950.45 304.372C2284.49 364.355 2585.15 528.645 2793.11 775.31C2581.65 523.123 2287.31 342.789 1952 276.23C1952 275.82 1952 275.41 1952 275C1952 123.122 1828.88 0 1677 0C1526.41 0 1404.1 121.035 1402.03 271.129C1387.76 273.684 1373.56 276.444 1359.44 279.407C1065.09 341.158 803.054 490.755 602.018 699.51C555.716 664.062 497.818 643 435 643C283.122 643 160 766.122 160 918C160 1021.39 217.061 1111.46 301.409 1158.43C229.617 1331.91 190 1522.08 190 1721.5C190 1772.32 192.573 1822.55 197.596 1872.04C83.4024 1905.48 0 2011 0 2136ZM12 2135.5C12 2280.47 129.525 2398 274.5 2398C300.262 2398 325.158 2394.29 348.681 2387.37C355.925 2385.24 363.039 2382.81 370.009 2380.08C467.758 2341.88 537 2246.78 537 2135.5C537 1990.53 419.475 1873 274.5 1873C258.936 1873 243.689 1874.35 228.869 1876.95C218.652 1878.74 208.639 1881.12 198.865 1884.06C90.7607 1916.53 12 2016.82 12 2135.5ZM434.5 1180C579.475 1180 697 1062.47 697 917.5C697 843.485 666.368 776.625 617.089 728.906C609.608 721.661 601.696 714.858 593.397 708.538C549.288 674.945 494.223 655 434.5 655C289.525 655 172 772.525 172 917.5C172 1015.93 226.181 1101.71 306.346 1146.65C315.389 1151.71 324.763 1156.26 334.427 1160.25C365.268 1172.98 399.064 1180 434.5 1180ZM1414 274.5C1414 283.226 1414.43 291.852 1415.26 300.359C1428.25 433.196 1540.25 537 1676.5 537C1812.15 537 1923.77 434.109 1937.57 302.113C1938.51 293.038 1939 283.826 1939 274.5C1939 274.237 1939 273.974 1939 273.711C1938.57 129.099 1821.21 12 1676.5 12C1533.35 12 1416.97 126.579 1414.06 269.026C1414.02 270.846 1414 272.671 1414 274.5Z" fill="white" fill-opacity="0.5"/>
<path fill-rule="evenodd" clip-rule="evenodd" d="M697 917.5C697 1062.47 579.475 1180 434.5 1180C399.064 1180 365.268 1172.98 334.427 1160.25C324.763 1156.26 315.389 1151.71 306.346 1146.65C226.181 1101.71 172 1015.93 172 917.5C172 772.525 289.525 655 434.5 655C494.223 655 549.288 674.945 593.397 708.538C601.696 714.858 609.608 721.661 617.089 728.906C666.368 776.625 697 843.485 697 917.5ZM358.461 1062C384.886 1062 456 1048.51 456 975.977C456 903.442 353.036 751.765 358.461 728.027C363.887 704.288 255.497 895.317 260.145 975.977C264.794 1056.64 332.037 1062 358.461 1062ZM509.709 849C521.708 849 554 842.938 554 810.341C554 777.743 507.246 709.579 509.709 698.911C512.173 688.242 462.955 774.092 465.066 810.341C467.177 846.589 497.711 849 509.709 849ZM510.207 1120C522.071 1120 554 1113.94 554 1081.34C554 1048.74 507.771 980.579 510.207 969.911C512.643 959.242 463.978 1045.09 466.065 1081.34C468.152 1117.59 498.343 1120 510.207 1120Z" fill="white" fill-opacity="0.3"/>
<path fill-rule="evenodd" clip-rule="evenodd" d="M274.5 2398C129.525 2398 12 2280.47 12 2135.5C12 2016.82 90.7607 1916.53 198.865 1884.06C208.639 1881.12 218.652 1878.74 228.869 1876.95C243.689 1874.35 258.936 1873 274.5 1873C419.475 1873 537 1990.53 537 2135.5C537 2246.78 467.758 2341.88 370.009 2380.08C363.039 2382.81 355.925 2385.24 348.681 2387.37C325.158 2394.29 300.262 2398 274.5 2398ZM186.686 2270.15C168.696 2275.93 121.744 2287 100.974 2233.26C80.2034 2179.52 112.303 2026.14 113.791 2043.44L113.819 2043.69C114.803 2050.9 132.16 2068.3 153.516 2089.69L153.52 2089.7C165.282 2101.48 178.256 2114.48 190.376 2127.67C181.41 2142.45 175.893 2157.01 173.423 2170.96C169.488 2174.25 164.48 2176.95 157.042 2179.82L143.774 2153.79C158.014 2145.54 161.17 2140.51 163.01 2131.22C158.582 2140.84 154.16 2145.22 142.352 2151L127.662 2122.18C136.622 2116.92 139.926 2113.02 145.22 2105.72L145.048 2105.86C138.165 2111.8 134.255 2115.18 126.992 2118.37C119.412 2095.38 117.62 2078.78 114.989 2054.4C114.621 2051 114.237 2047.44 113.819 2043.69L113.791 2043.44C115.13 2074.76 115.402 2092.65 122.958 2119.67C117.164 2122.27 113.289 2119.92 106.382 2115.73L106.854 2116.11C112.621 2120.73 116 2123.44 123.423 2123.54L137.965 2151.48C126.032 2154.42 120.282 2151.78 109.745 2148.33C120.694 2152.83 126.696 2155.67 139.826 2155.06L152.507 2179.42C145.096 2185.3 138.181 2183.45 124.332 2177.34C137.023 2186.1 143.717 2187.44 154.988 2184.19C153.442 2200.53 154.125 2209.42 159.48 2224.48C144.087 2227.58 133.147 2223.83 113.567 2216.97C133.498 2228.26 143.417 2229.92 159.912 2228.36C167.324 2243.76 170.918 2249.73 176.821 2257.86L179.125 2255.27C172.558 2246.04 169.425 2239.76 164.678 2226.83C169.803 2224.85 174.226 2222.91 178.12 2220.9C184.105 2235.93 194.217 2249.19 207.621 2259.87C199.77 2265.06 192.02 2268.44 186.686 2270.15ZM164.15 2222.98C159.462 2206.97 158.416 2198.27 158.667 2183.01C165.091 2180.23 169.521 2177.61 172.819 2174.79C170.733 2189.88 172.225 2204.22 176.777 2217.3C173.057 2219.2 168.907 2221.06 164.15 2222.98ZM372.464 2250.35C330.469 2318.71 255.441 2290.17 230.465 2274.84C224.579 2271.23 216.724 2266.03 208.707 2259.15C197.523 2249.55 186.025 2236.69 179.125 2220.37C178.631 2219.2 178.161 2218.02 177.716 2216.81C173.117 2204.38 171.226 2190.03 174.028 2173.7C174.251 2172.4 174.505 2171.09 174.789 2169.76C176.981 2159.52 181.01 2148.52 187.338 2136.74C188.664 2134.27 190.158 2131.77 191.808 2129.23C242.773 2050.82 442.1 1941.48 423.82 1960.1L423.554 1960.38C405.036 1981.23 414.26 2182.32 372.464 2250.35Z" fill="white" fill-opacity="0.3"/>
<path fill-rule="evenodd" clip-rule="evenodd" d="M1415.26 300.359C1414.43 291.852 1414 283.226 1414 274.5C1414 272.671 1414.02 270.846 1414.06 269.026C1416.97 126.579 1533.35 12 1676.5 12C1821.21 12 1938.57 129.099 1939 273.711C1939 273.974 1939 274.237 1939 274.5C1939 283.826 1938.51 293.038 1937.57 302.113C1923.77 434.109 1812.15 537 1676.5 537C1540.25 537 1428.25 433.196 1415.26 300.359ZM1677 377.037C1730.04 377.037 1773.04 334.04 1773.04 281C1773.04 227.96 1730.04 184.963 1677 184.963C1623.96 184.963 1580.96 227.96 1580.96 281C1580.96 334.04 1623.96 377.037 1677 377.037ZM1678.44 402.007H1675.56C1672.91 402.007 1670.76 404.157 1670.76 406.809V482.198C1670.76 484.85 1672.91 487 1675.56 487H1678.44C1681.09 487 1683.24 484.85 1683.24 482.198V406.809C1683.24 404.157 1681.09 402.007 1678.44 402.007ZM1678.44 75H1675.56C1672.91 75 1670.76 77.1499 1670.76 79.8019V155.191C1670.76 157.843 1672.91 159.993 1675.56 159.993H1678.44C1681.09 159.993 1683.24 157.843 1683.24 155.191V79.8019C1683.24 77.1499 1681.09 75 1678.44 75ZM1763.58 365.546L1761.55 367.584C1759.67 369.459 1759.67 372.499 1761.55 374.374L1814.85 427.683C1816.73 429.558 1819.77 429.558 1821.65 427.683L1823.68 425.645C1825.56 423.77 1825.56 420.73 1823.68 418.855L1770.37 365.546C1768.5 363.671 1765.46 363.671 1763.58 365.546ZM1532.35 134.317L1530.32 136.355C1528.44 138.23 1528.44 141.27 1530.32 143.146L1583.63 196.454C1585.5 198.329 1588.54 198.329 1590.42 196.454L1592.45 194.417C1594.33 192.541 1594.33 189.501 1592.45 187.626L1539.15 134.317C1537.27 132.442 1534.23 132.442 1532.35 134.317ZM1798.01 279.559V282.441C1798.01 285.093 1800.16 287.242 1802.81 287.242H1878.2C1880.85 287.242 1883 285.093 1883 282.441V279.559C1883 276.907 1880.85 274.758 1878.2 274.758H1802.81C1800.16 274.758 1798.01 276.907 1798.01 279.559ZM1471 279.559V282.441C1471 285.093 1473.15 287.242 1475.8 287.242H1551.19C1553.84 287.242 1555.99 285.093 1555.99 282.441V279.559C1555.99 276.907 1553.84 274.758 1551.19 274.758H1475.8C1473.15 274.758 1471 276.907 1471 279.559ZM1592.45 367.584L1590.42 365.546C1588.54 363.671 1585.5 363.671 1583.63 365.546L1530.32 418.855C1528.44 420.73 1528.44 423.77 1530.32 425.645L1532.35 427.683C1534.23 429.558 1537.27 429.558 1539.15 427.683L1592.45 374.374C1594.33 372.499 1594.33 369.459 1592.45 367.584ZM1823.68 136.355L1821.65 134.317C1819.77 132.442 1816.73 132.442 1814.85 134.317L1761.55 187.626C1759.67 189.501 1759.67 192.541 1761.55 194.417L1763.58 196.454C1765.46 198.329 1768.5 198.329 1770.37 196.454L1823.68 143.146C1825.56 141.27 1825.56 138.23 1823.68 136.355Z" fill="white" fill-opacity="0.3"/>
<path fill-rule="evenodd" clip-rule="evenodd" d="M648 1791C648 1153.66 1164.66 637 1802 637C1938.12 637 2068.74 660.569 2190 703.849L2145.5 780.497C2037.71 743.867 1922.18 724 1802 724C1212.71 724 735 1201.71 735 1791C735 1975.93 782.044 2149.86 864.818 2301.5L793.299 2352C700.738 2185.93 648 1994.62 648 1791Z" fill="#D9D9D9" fill-opacity="0.4"/>
<path d="M2589.5 1071.04L2652.5 1011.01C2526.86 874.087 2368.58 767.591 2190 703.849L2145.5 780.497C2317.4 838.912 2469.6 939.957 2589.5 1071.04Z" fill="#D9D9D9" fill-opacity="0.3"/>
<path d="M1155.5 2747.04L1208 2677.5C1065.54 2581.86 947.397 2452.78 864.818 2301.5L793.299 2352C881.557 2510.35 1006.02 2645.77 1155.5 2747.04Z" fill="#D9D9D9" fill-opacity="0.3"/>
<path fill-rule="evenodd" clip-rule="evenodd" d="M2553.8 1731.37C2548.47 1731.37 2543.65 1734.55 2541.57 1739.45L2483.06 1876.73C2481.65 1880.06 2481.65 1883.83 2483.06 1887.16L2541.57 2024.44C2543.65 2029.35 2548.47 2032.53 2553.8 2032.53H2726.34C2731.67 2032.53 2736.48 2029.35 2738.57 2024.44L2797.07 1887.16C2798.49 1883.83 2798.49 1880.06 2797.07 1876.73L2738.57 1739.45C2736.48 1734.55 2731.67 1731.37 2726.34 1731.37H2553.8ZM2722.37 1738.01H2557.77C2552.44 1738.01 2547.62 1741.19 2545.53 1746.1L2489.71 1877.07C2488.29 1880.4 2488.29 1884.16 2489.71 1887.49L2545.53 2018.46C2547.62 2023.36 2552.44 2026.54 2557.77 2026.54H2722.37C2727.7 2026.54 2732.51 2023.36 2734.6 2018.46L2790.42 1887.49C2791.84 1884.16 2791.84 1880.4 2790.42 1877.07L2734.6 1746.1C2732.51 1741.19 2727.7 1738.01 2722.37 1738.01Z" fill="white"/>
<path d="M2552.68 1757.4C2554.77 1752.5 2559.58 1749.32 2564.91 1749.32H2715.22C2720.55 1749.32 2725.37 1752.5 2727.46 1757.4L2778.45 1877.07C2779.87 1880.4 2779.87 1884.16 2778.45 1887.49L2727.46 2007.16C2725.37 2012.06 2720.55 2015.24 2715.22 2015.24H2564.91C2559.58 2015.24 2554.77 2012.06 2552.68 2007.16L2501.68 1887.49C2500.26 1884.16 2500.26 1880.4 2501.68 1877.07L2552.68 1757.4Z" fill="#D9D9D9" fill-opacity="0.6"/>
<path d="M2598.45 1935.44C2598.45 1933.22 2598.47 1930.52 2598.53 1927.32C2598.58 1924.13 2598.61 1920.1 2598.61 1915.23L2598.69 1835.7C2598.69 1833.48 2599.45 1831.62 2600.96 1830.1C2602.53 1828.59 2604.45 1827.83 2606.72 1827.83C2608.94 1827.83 2610.86 1828.61 2612.49 1830.18C2614.11 1831.75 2614.92 1833.64 2614.92 1835.86C2614.97 1842.73 2615 1849.66 2615 1856.64C2615 1863.62 2615.03 1870.52 2615.08 1877.33L2670.67 1830.75C2672.35 1829.23 2674.16 1828.48 2676.11 1828.48C2678.44 1828.48 2680.36 1829.34 2681.87 1831.07C2683.39 1832.81 2684.15 1834.7 2684.15 1836.76C2684.15 1838.97 2683.23 1840.89 2681.39 1842.52L2636.1 1880.17L2684.96 1932.68C2686.53 1934.36 2687.31 1936.09 2687.31 1937.87C2687.31 1940.04 2686.47 1941.9 2684.79 1943.47C2683.12 1944.99 2681.17 1945.75 2678.95 1945.75C2678.03 1945.75 2677.06 1945.58 2676.03 1945.26C2675 1944.93 2674.08 1944.39 2673.27 1943.64L2623.85 1890.64L2615 1898.19C2614.95 1908.31 2614.89 1917.04 2614.84 1924.4C2614.79 1931.71 2614.73 1936.39 2614.68 1938.44C2614.68 1940.77 2613.78 1942.61 2612 1943.96C2610.27 1945.26 2608.4 1945.91 2606.4 1945.91C2603.37 1945.91 2601.29 1944.88 2600.15 1942.82C2599.01 1940.71 2598.45 1938.25 2598.45 1935.44Z" fill="white"/>
<path fill-rule="evenodd" clip-rule="evenodd" d="M2841.66 1553.19C2836.33 1553.19 2831.52 1556.37 2829.43 1561.28L2770.93 1698.56C2769.51 1701.89 2769.51 1705.66 2770.93 1708.99L2829.43 1846.27C2831.52 1851.17 2836.33 1854.36 2841.66 1854.36H3014.2C3019.53 1854.36 3024.35 1851.17 3026.43 1846.27L3084.94 1708.99C3086.35 1705.66 3086.35 1701.89 3084.94 1698.56L3026.43 1561.28C3024.35 1556.37 3019.53 1553.19 3014.2 1553.19H2841.66ZM3010.23 1559.84H2845.63C2840.3 1559.84 2835.49 1563.02 2833.4 1567.92L2777.58 1698.89C2776.16 1702.22 2776.16 1705.99 2777.58 1709.32L2833.4 1840.29C2835.49 1845.19 2840.3 1848.37 2845.63 1848.37H3010.23C3015.56 1848.37 3020.38 1845.19 3022.47 1840.29L3078.29 1709.32C3079.71 1705.99 3079.71 1702.22 3078.29 1698.89L3022.47 1567.92C3020.38 1563.02 3015.56 1559.84 3010.23 1559.84Z" fill="white"/>
<path d="M2840.54 1579.23C2842.63 1574.32 2847.45 1571.14 2852.78 1571.14H3003.09C3008.42 1571.14 3013.23 1574.32 3015.32 1579.23L3066.32 1698.89C3067.74 1702.22 3067.74 1705.99 3066.32 1709.32L3015.32 1828.99C3013.23 1833.89 3008.42 1837.07 3003.09 1837.07H2852.78C2847.45 1837.07 2842.63 1833.89 2840.54 1828.99L2789.55 1709.32C2788.13 1705.99 2788.13 1702.22 2789.55 1698.89L2840.54 1579.23Z" fill="#D9D9D9" fill-opacity="0.6"/>
<path d="M2898.58 1771.14C2896.36 1771.14 2894.44 1770.38 2892.82 1768.87C2891.25 1767.3 2890.46 1765.43 2890.46 1763.27V1763.19L2890.3 1661.5C2890.3 1660.04 2890.98 1658.39 2892.33 1656.55C2893.74 1654.66 2895.74 1653.68 2898.34 1653.63L2923.9 1653.47C2931.8 1653.47 2938.97 1654.77 2945.41 1657.36C2951.9 1659.91 2957.04 1663.77 2960.82 1668.97C2964.67 1674.16 2966.59 1680.76 2966.59 1688.77C2966.59 1697.91 2964.58 1705.27 2960.58 1710.84C2956.58 1716.42 2951.09 1720.5 2944.11 1723.1C2937.18 1725.69 2929.28 1727.13 2920.41 1727.4L2906.61 1727.72L2906.69 1763.35V1763.43C2906.69 1765.6 2905.88 1767.44 2904.26 1768.95C2902.69 1770.41 2900.8 1771.14 2898.58 1771.14ZM2950.36 1688.85C2950.36 1682.09 2947.95 1677.22 2943.13 1674.24C2938.37 1671.27 2931.77 1669.78 2923.33 1669.78H2906.53L2906.61 1711.33L2920.17 1711.01C2929.69 1710.79 2937.1 1709.17 2942.4 1706.14C2947.7 1703.11 2950.36 1697.34 2950.36 1688.85Z" fill="white"/>
<path fill-rule="evenodd" clip-rule="evenodd" d="M2553.8 1383C2548.47 1383 2543.65 1386.18 2541.57 1391.08L2483.06 1528.37C2481.65 1531.7 2481.65 1535.46 2483.06 1538.79L2541.57 1676.08C2543.65 1680.98 2548.47 1684.16 2553.8 1684.16H2726.34C2731.67 1684.16 2736.48 1680.98 2738.57 1676.08L2797.07 1538.79C2798.49 1535.46 2798.49 1531.7 2797.07 1528.37L2738.57 1391.08C2736.48 1386.18 2731.67 1383 2726.34 1383H2553.8ZM2722.37 1389.65H2557.77C2552.44 1389.65 2547.62 1392.83 2545.53 1397.73L2489.71 1528.7C2488.29 1532.03 2488.29 1535.8 2489.71 1539.13L2545.53 1670.1C2547.62 1675 2552.44 1678.18 2557.77 1678.18H2722.37C2727.7 1678.18 2732.51 1675 2734.6 1670.1L2790.42 1539.13C2791.84 1535.8 2791.84 1532.03 2790.42 1528.7L2734.6 1397.73C2732.51 1392.83 2727.7 1389.65 2722.37 1389.65Z" fill="white"/>
<path d="M2552.68 1409.03C2554.77 1404.13 2559.58 1400.95 2564.91 1400.95H2715.22C2720.55 1400.95 2725.37 1404.13 2727.46 1409.03L2778.45 1528.7C2779.87 1532.03 2779.87 1535.8 2778.45 1539.13L2727.46 1658.79C2725.37 1663.7 2720.55 1666.88 2715.22 1666.88H2564.91C2559.58 1666.88 2554.77 1663.7 2552.68 1658.79L2501.68 1539.13C2500.26 1535.8 2500.26 1532.03 2501.68 1528.7L2552.68 1409.03Z" fill="#D9D9D9" fill-opacity="0.6"/>
<path d="M2593.79 1484.66C2593.79 1482.39 2594.6 1480.52 2596.23 1479.06C2597.9 1477.55 2599.88 1476.79 2602.15 1476.79C2604.69 1476.79 2606.78 1477.82 2608.4 1479.87L2669.67 1563.06V1484.9C2669.67 1482.74 2670.46 1480.9 2672.03 1479.38C2673.65 1477.82 2675.57 1477.03 2677.79 1477.03C2680.01 1477.03 2681.9 1477.82 2683.47 1479.38C2685.09 1480.9 2685.9 1482.74 2685.9 1484.9L2685.82 1586.67C2685.82 1588.94 2684.98 1590.84 2683.31 1592.35C2681.68 1593.81 2679.74 1594.54 2677.46 1594.54C2674.92 1594.54 2672.84 1593.46 2671.21 1591.3L2610.02 1508.19V1586.59C2610.02 1588.75 2609.21 1590.62 2607.59 1592.19C2606.02 1593.7 2604.13 1594.46 2601.91 1594.46C2599.69 1594.46 2597.77 1593.7 2596.15 1592.19C2594.58 1590.62 2593.79 1588.75 2593.79 1586.59V1484.66Z" fill="white"/>
</svg>
